G75*
%MOIN*%
%OFA0B0*%
%FSLAX25Y25*%
%IPPOS*%
%LPD*%
%AMOC8*
5,1,8,0,0,1.08239X$1,22.5*
%
%ADD10C,0.01000*%
%ADD11C,0.00000*%
D10*
X0214059Y0005108D02*
X0216028Y0003140D01*
X0369571Y0003140D01*
X0371539Y0005108D01*
X0371539Y0080305D01*
X0363665Y0080305D01*
X0363665Y0105502D01*
X0371539Y0105502D01*
X0371539Y0146841D01*
X0363665Y0146841D01*
X0363665Y0172431D01*
X0371539Y0172431D01*
X0371539Y0225581D01*
X0214059Y0225581D01*
X0214059Y0162589D01*
X0221933Y0162589D01*
X0221933Y0136998D01*
X0214059Y0136998D01*
X0214059Y0105502D01*
X0221933Y0105502D01*
X0221933Y0080305D01*
X0214059Y0080305D01*
X0214059Y0005108D01*
D11*
X0229020Y0201959D02*
X0229022Y0202123D01*
X0229028Y0202287D01*
X0229038Y0202451D01*
X0229052Y0202615D01*
X0229070Y0202778D01*
X0229092Y0202941D01*
X0229119Y0203103D01*
X0229149Y0203265D01*
X0229183Y0203425D01*
X0229221Y0203585D01*
X0229262Y0203744D01*
X0229308Y0203902D01*
X0229358Y0204058D01*
X0229411Y0204214D01*
X0229468Y0204368D01*
X0229529Y0204520D01*
X0229594Y0204671D01*
X0229663Y0204821D01*
X0229735Y0204968D01*
X0229810Y0205114D01*
X0229890Y0205258D01*
X0229972Y0205400D01*
X0230058Y0205540D01*
X0230148Y0205677D01*
X0230241Y0205813D01*
X0230337Y0205946D01*
X0230437Y0206077D01*
X0230539Y0206205D01*
X0230645Y0206331D01*
X0230754Y0206454D01*
X0230866Y0206574D01*
X0230980Y0206692D01*
X0231098Y0206806D01*
X0231218Y0206918D01*
X0231341Y0207027D01*
X0231467Y0207133D01*
X0231595Y0207235D01*
X0231726Y0207335D01*
X0231859Y0207431D01*
X0231995Y0207524D01*
X0232132Y0207614D01*
X0232272Y0207700D01*
X0232414Y0207782D01*
X0232558Y0207862D01*
X0232704Y0207937D01*
X0232851Y0208009D01*
X0233001Y0208078D01*
X0233152Y0208143D01*
X0233304Y0208204D01*
X0233458Y0208261D01*
X0233614Y0208314D01*
X0233770Y0208364D01*
X0233928Y0208410D01*
X0234087Y0208451D01*
X0234247Y0208489D01*
X0234407Y0208523D01*
X0234569Y0208553D01*
X0234731Y0208580D01*
X0234894Y0208602D01*
X0235057Y0208620D01*
X0235221Y0208634D01*
X0235385Y0208644D01*
X0235549Y0208650D01*
X0235713Y0208652D01*
X0235877Y0208650D01*
X0236041Y0208644D01*
X0236205Y0208634D01*
X0236369Y0208620D01*
X0236532Y0208602D01*
X0236695Y0208580D01*
X0236857Y0208553D01*
X0237019Y0208523D01*
X0237179Y0208489D01*
X0237339Y0208451D01*
X0237498Y0208410D01*
X0237656Y0208364D01*
X0237812Y0208314D01*
X0237968Y0208261D01*
X0238122Y0208204D01*
X0238274Y0208143D01*
X0238425Y0208078D01*
X0238575Y0208009D01*
X0238722Y0207937D01*
X0238868Y0207862D01*
X0239012Y0207782D01*
X0239154Y0207700D01*
X0239294Y0207614D01*
X0239431Y0207524D01*
X0239567Y0207431D01*
X0239700Y0207335D01*
X0239831Y0207235D01*
X0239959Y0207133D01*
X0240085Y0207027D01*
X0240208Y0206918D01*
X0240328Y0206806D01*
X0240446Y0206692D01*
X0240560Y0206574D01*
X0240672Y0206454D01*
X0240781Y0206331D01*
X0240887Y0206205D01*
X0240989Y0206077D01*
X0241089Y0205946D01*
X0241185Y0205813D01*
X0241278Y0205677D01*
X0241368Y0205540D01*
X0241454Y0205400D01*
X0241536Y0205258D01*
X0241616Y0205114D01*
X0241691Y0204968D01*
X0241763Y0204821D01*
X0241832Y0204671D01*
X0241897Y0204520D01*
X0241958Y0204368D01*
X0242015Y0204214D01*
X0242068Y0204058D01*
X0242118Y0203902D01*
X0242164Y0203744D01*
X0242205Y0203585D01*
X0242243Y0203425D01*
X0242277Y0203265D01*
X0242307Y0203103D01*
X0242334Y0202941D01*
X0242356Y0202778D01*
X0242374Y0202615D01*
X0242388Y0202451D01*
X0242398Y0202287D01*
X0242404Y0202123D01*
X0242406Y0201959D01*
X0242404Y0201795D01*
X0242398Y0201631D01*
X0242388Y0201467D01*
X0242374Y0201303D01*
X0242356Y0201140D01*
X0242334Y0200977D01*
X0242307Y0200815D01*
X0242277Y0200653D01*
X0242243Y0200493D01*
X0242205Y0200333D01*
X0242164Y0200174D01*
X0242118Y0200016D01*
X0242068Y0199860D01*
X0242015Y0199704D01*
X0241958Y0199550D01*
X0241897Y0199398D01*
X0241832Y0199247D01*
X0241763Y0199097D01*
X0241691Y0198950D01*
X0241616Y0198804D01*
X0241536Y0198660D01*
X0241454Y0198518D01*
X0241368Y0198378D01*
X0241278Y0198241D01*
X0241185Y0198105D01*
X0241089Y0197972D01*
X0240989Y0197841D01*
X0240887Y0197713D01*
X0240781Y0197587D01*
X0240672Y0197464D01*
X0240560Y0197344D01*
X0240446Y0197226D01*
X0240328Y0197112D01*
X0240208Y0197000D01*
X0240085Y0196891D01*
X0239959Y0196785D01*
X0239831Y0196683D01*
X0239700Y0196583D01*
X0239567Y0196487D01*
X0239431Y0196394D01*
X0239294Y0196304D01*
X0239154Y0196218D01*
X0239012Y0196136D01*
X0238868Y0196056D01*
X0238722Y0195981D01*
X0238575Y0195909D01*
X0238425Y0195840D01*
X0238274Y0195775D01*
X0238122Y0195714D01*
X0237968Y0195657D01*
X0237812Y0195604D01*
X0237656Y0195554D01*
X0237498Y0195508D01*
X0237339Y0195467D01*
X0237179Y0195429D01*
X0237019Y0195395D01*
X0236857Y0195365D01*
X0236695Y0195338D01*
X0236532Y0195316D01*
X0236369Y0195298D01*
X0236205Y0195284D01*
X0236041Y0195274D01*
X0235877Y0195268D01*
X0235713Y0195266D01*
X0235549Y0195268D01*
X0235385Y0195274D01*
X0235221Y0195284D01*
X0235057Y0195298D01*
X0234894Y0195316D01*
X0234731Y0195338D01*
X0234569Y0195365D01*
X0234407Y0195395D01*
X0234247Y0195429D01*
X0234087Y0195467D01*
X0233928Y0195508D01*
X0233770Y0195554D01*
X0233614Y0195604D01*
X0233458Y0195657D01*
X0233304Y0195714D01*
X0233152Y0195775D01*
X0233001Y0195840D01*
X0232851Y0195909D01*
X0232704Y0195981D01*
X0232558Y0196056D01*
X0232414Y0196136D01*
X0232272Y0196218D01*
X0232132Y0196304D01*
X0231995Y0196394D01*
X0231859Y0196487D01*
X0231726Y0196583D01*
X0231595Y0196683D01*
X0231467Y0196785D01*
X0231341Y0196891D01*
X0231218Y0197000D01*
X0231098Y0197112D01*
X0230980Y0197226D01*
X0230866Y0197344D01*
X0230754Y0197464D01*
X0230645Y0197587D01*
X0230539Y0197713D01*
X0230437Y0197841D01*
X0230337Y0197972D01*
X0230241Y0198105D01*
X0230148Y0198241D01*
X0230058Y0198378D01*
X0229972Y0198518D01*
X0229890Y0198660D01*
X0229810Y0198804D01*
X0229735Y0198950D01*
X0229663Y0199097D01*
X0229594Y0199247D01*
X0229529Y0199398D01*
X0229468Y0199550D01*
X0229411Y0199704D01*
X0229358Y0199860D01*
X0229308Y0200016D01*
X0229262Y0200174D01*
X0229221Y0200333D01*
X0229183Y0200493D01*
X0229149Y0200653D01*
X0229119Y0200815D01*
X0229092Y0200977D01*
X0229070Y0201140D01*
X0229052Y0201303D01*
X0229038Y0201467D01*
X0229028Y0201631D01*
X0229022Y0201795D01*
X0229020Y0201959D01*
X0341224Y0201959D02*
X0341226Y0202123D01*
X0341232Y0202287D01*
X0341242Y0202451D01*
X0341256Y0202615D01*
X0341274Y0202778D01*
X0341296Y0202941D01*
X0341323Y0203103D01*
X0341353Y0203265D01*
X0341387Y0203425D01*
X0341425Y0203585D01*
X0341466Y0203744D01*
X0341512Y0203902D01*
X0341562Y0204058D01*
X0341615Y0204214D01*
X0341672Y0204368D01*
X0341733Y0204520D01*
X0341798Y0204671D01*
X0341867Y0204821D01*
X0341939Y0204968D01*
X0342014Y0205114D01*
X0342094Y0205258D01*
X0342176Y0205400D01*
X0342262Y0205540D01*
X0342352Y0205677D01*
X0342445Y0205813D01*
X0342541Y0205946D01*
X0342641Y0206077D01*
X0342743Y0206205D01*
X0342849Y0206331D01*
X0342958Y0206454D01*
X0343070Y0206574D01*
X0343184Y0206692D01*
X0343302Y0206806D01*
X0343422Y0206918D01*
X0343545Y0207027D01*
X0343671Y0207133D01*
X0343799Y0207235D01*
X0343930Y0207335D01*
X0344063Y0207431D01*
X0344199Y0207524D01*
X0344336Y0207614D01*
X0344476Y0207700D01*
X0344618Y0207782D01*
X0344762Y0207862D01*
X0344908Y0207937D01*
X0345055Y0208009D01*
X0345205Y0208078D01*
X0345356Y0208143D01*
X0345508Y0208204D01*
X0345662Y0208261D01*
X0345818Y0208314D01*
X0345974Y0208364D01*
X0346132Y0208410D01*
X0346291Y0208451D01*
X0346451Y0208489D01*
X0346611Y0208523D01*
X0346773Y0208553D01*
X0346935Y0208580D01*
X0347098Y0208602D01*
X0347261Y0208620D01*
X0347425Y0208634D01*
X0347589Y0208644D01*
X0347753Y0208650D01*
X0347917Y0208652D01*
X0348081Y0208650D01*
X0348245Y0208644D01*
X0348409Y0208634D01*
X0348573Y0208620D01*
X0348736Y0208602D01*
X0348899Y0208580D01*
X0349061Y0208553D01*
X0349223Y0208523D01*
X0349383Y0208489D01*
X0349543Y0208451D01*
X0349702Y0208410D01*
X0349860Y0208364D01*
X0350016Y0208314D01*
X0350172Y0208261D01*
X0350326Y0208204D01*
X0350478Y0208143D01*
X0350629Y0208078D01*
X0350779Y0208009D01*
X0350926Y0207937D01*
X0351072Y0207862D01*
X0351216Y0207782D01*
X0351358Y0207700D01*
X0351498Y0207614D01*
X0351635Y0207524D01*
X0351771Y0207431D01*
X0351904Y0207335D01*
X0352035Y0207235D01*
X0352163Y0207133D01*
X0352289Y0207027D01*
X0352412Y0206918D01*
X0352532Y0206806D01*
X0352650Y0206692D01*
X0352764Y0206574D01*
X0352876Y0206454D01*
X0352985Y0206331D01*
X0353091Y0206205D01*
X0353193Y0206077D01*
X0353293Y0205946D01*
X0353389Y0205813D01*
X0353482Y0205677D01*
X0353572Y0205540D01*
X0353658Y0205400D01*
X0353740Y0205258D01*
X0353820Y0205114D01*
X0353895Y0204968D01*
X0353967Y0204821D01*
X0354036Y0204671D01*
X0354101Y0204520D01*
X0354162Y0204368D01*
X0354219Y0204214D01*
X0354272Y0204058D01*
X0354322Y0203902D01*
X0354368Y0203744D01*
X0354409Y0203585D01*
X0354447Y0203425D01*
X0354481Y0203265D01*
X0354511Y0203103D01*
X0354538Y0202941D01*
X0354560Y0202778D01*
X0354578Y0202615D01*
X0354592Y0202451D01*
X0354602Y0202287D01*
X0354608Y0202123D01*
X0354610Y0201959D01*
X0354608Y0201795D01*
X0354602Y0201631D01*
X0354592Y0201467D01*
X0354578Y0201303D01*
X0354560Y0201140D01*
X0354538Y0200977D01*
X0354511Y0200815D01*
X0354481Y0200653D01*
X0354447Y0200493D01*
X0354409Y0200333D01*
X0354368Y0200174D01*
X0354322Y0200016D01*
X0354272Y0199860D01*
X0354219Y0199704D01*
X0354162Y0199550D01*
X0354101Y0199398D01*
X0354036Y0199247D01*
X0353967Y0199097D01*
X0353895Y0198950D01*
X0353820Y0198804D01*
X0353740Y0198660D01*
X0353658Y0198518D01*
X0353572Y0198378D01*
X0353482Y0198241D01*
X0353389Y0198105D01*
X0353293Y0197972D01*
X0353193Y0197841D01*
X0353091Y0197713D01*
X0352985Y0197587D01*
X0352876Y0197464D01*
X0352764Y0197344D01*
X0352650Y0197226D01*
X0352532Y0197112D01*
X0352412Y0197000D01*
X0352289Y0196891D01*
X0352163Y0196785D01*
X0352035Y0196683D01*
X0351904Y0196583D01*
X0351771Y0196487D01*
X0351635Y0196394D01*
X0351498Y0196304D01*
X0351358Y0196218D01*
X0351216Y0196136D01*
X0351072Y0196056D01*
X0350926Y0195981D01*
X0350779Y0195909D01*
X0350629Y0195840D01*
X0350478Y0195775D01*
X0350326Y0195714D01*
X0350172Y0195657D01*
X0350016Y0195604D01*
X0349860Y0195554D01*
X0349702Y0195508D01*
X0349543Y0195467D01*
X0349383Y0195429D01*
X0349223Y0195395D01*
X0349061Y0195365D01*
X0348899Y0195338D01*
X0348736Y0195316D01*
X0348573Y0195298D01*
X0348409Y0195284D01*
X0348245Y0195274D01*
X0348081Y0195268D01*
X0347917Y0195266D01*
X0347753Y0195268D01*
X0347589Y0195274D01*
X0347425Y0195284D01*
X0347261Y0195298D01*
X0347098Y0195316D01*
X0346935Y0195338D01*
X0346773Y0195365D01*
X0346611Y0195395D01*
X0346451Y0195429D01*
X0346291Y0195467D01*
X0346132Y0195508D01*
X0345974Y0195554D01*
X0345818Y0195604D01*
X0345662Y0195657D01*
X0345508Y0195714D01*
X0345356Y0195775D01*
X0345205Y0195840D01*
X0345055Y0195909D01*
X0344908Y0195981D01*
X0344762Y0196056D01*
X0344618Y0196136D01*
X0344476Y0196218D01*
X0344336Y0196304D01*
X0344199Y0196394D01*
X0344063Y0196487D01*
X0343930Y0196583D01*
X0343799Y0196683D01*
X0343671Y0196785D01*
X0343545Y0196891D01*
X0343422Y0197000D01*
X0343302Y0197112D01*
X0343184Y0197226D01*
X0343070Y0197344D01*
X0342958Y0197464D01*
X0342849Y0197587D01*
X0342743Y0197713D01*
X0342641Y0197841D01*
X0342541Y0197972D01*
X0342445Y0198105D01*
X0342352Y0198241D01*
X0342262Y0198378D01*
X0342176Y0198518D01*
X0342094Y0198660D01*
X0342014Y0198804D01*
X0341939Y0198950D01*
X0341867Y0199097D01*
X0341798Y0199247D01*
X0341733Y0199398D01*
X0341672Y0199550D01*
X0341615Y0199704D01*
X0341562Y0199860D01*
X0341512Y0200016D01*
X0341466Y0200174D01*
X0341425Y0200333D01*
X0341387Y0200493D01*
X0341353Y0200653D01*
X0341323Y0200815D01*
X0341296Y0200977D01*
X0341274Y0201140D01*
X0341256Y0201303D01*
X0341242Y0201467D01*
X0341232Y0201631D01*
X0341226Y0201795D01*
X0341224Y0201959D01*
M02*
