G75*
%MOIN*%
%OFA0B0*%
%FSLAX25Y25*%
%IPPOS*%
%LPD*%
%AMOC8*
5,1,8,0,0,1.08239X$1,22.5*
%
%ADD10C,0.00600*%
%ADD11C,0.01200*%
%ADD12C,0.00500*%
%ADD13C,0.00700*%
D10*
X0222000Y0069463D02*
X0361000Y0069463D01*
X0361000Y0090463D01*
X0360860Y0090465D01*
X0360720Y0090471D01*
X0360580Y0090481D01*
X0360440Y0090494D01*
X0360301Y0090512D01*
X0360162Y0090534D01*
X0360025Y0090559D01*
X0359887Y0090588D01*
X0359751Y0090621D01*
X0359616Y0090658D01*
X0359482Y0090699D01*
X0359349Y0090744D01*
X0359217Y0090792D01*
X0359087Y0090844D01*
X0358958Y0090899D01*
X0358831Y0090958D01*
X0358705Y0091021D01*
X0358581Y0091087D01*
X0358460Y0091156D01*
X0358340Y0091229D01*
X0358222Y0091306D01*
X0358107Y0091385D01*
X0357993Y0091468D01*
X0357883Y0091554D01*
X0357774Y0091643D01*
X0357668Y0091735D01*
X0357565Y0091830D01*
X0357464Y0091927D01*
X0357367Y0092028D01*
X0357272Y0092131D01*
X0357180Y0092237D01*
X0357091Y0092346D01*
X0357005Y0092456D01*
X0356922Y0092570D01*
X0356843Y0092685D01*
X0356766Y0092803D01*
X0356693Y0092923D01*
X0356624Y0093044D01*
X0356558Y0093168D01*
X0356495Y0093294D01*
X0356436Y0093421D01*
X0356381Y0093550D01*
X0356329Y0093680D01*
X0356281Y0093812D01*
X0356236Y0093945D01*
X0356195Y0094079D01*
X0356158Y0094214D01*
X0356125Y0094350D01*
X0356096Y0094488D01*
X0356071Y0094625D01*
X0356049Y0094764D01*
X0356031Y0094903D01*
X0356018Y0095043D01*
X0356008Y0095183D01*
X0356002Y0095323D01*
X0356000Y0095463D01*
X0356002Y0095603D01*
X0356008Y0095743D01*
X0356018Y0095883D01*
X0356031Y0096023D01*
X0356049Y0096162D01*
X0356071Y0096301D01*
X0356096Y0096438D01*
X0356125Y0096576D01*
X0356158Y0096712D01*
X0356195Y0096847D01*
X0356236Y0096981D01*
X0356281Y0097114D01*
X0356329Y0097246D01*
X0356381Y0097376D01*
X0356436Y0097505D01*
X0356495Y0097632D01*
X0356558Y0097758D01*
X0356624Y0097882D01*
X0356693Y0098003D01*
X0356766Y0098123D01*
X0356843Y0098241D01*
X0356922Y0098356D01*
X0357005Y0098470D01*
X0357091Y0098580D01*
X0357180Y0098689D01*
X0357272Y0098795D01*
X0357367Y0098898D01*
X0357464Y0098999D01*
X0357565Y0099096D01*
X0357668Y0099191D01*
X0357774Y0099283D01*
X0357883Y0099372D01*
X0357993Y0099458D01*
X0358107Y0099541D01*
X0358222Y0099620D01*
X0358340Y0099697D01*
X0358460Y0099770D01*
X0358581Y0099839D01*
X0358705Y0099905D01*
X0358831Y0099968D01*
X0358958Y0100027D01*
X0359087Y0100082D01*
X0359217Y0100134D01*
X0359349Y0100182D01*
X0359482Y0100227D01*
X0359616Y0100268D01*
X0359751Y0100305D01*
X0359887Y0100338D01*
X0360025Y0100367D01*
X0360162Y0100392D01*
X0360301Y0100414D01*
X0360440Y0100432D01*
X0360580Y0100445D01*
X0360720Y0100455D01*
X0360860Y0100461D01*
X0361000Y0100463D01*
X0361000Y0121463D01*
X0222000Y0121463D01*
X0222000Y0069463D01*
X0278761Y0138879D02*
X0279828Y0138879D01*
X0280896Y0139947D01*
X0280896Y0145285D01*
X0277693Y0145285D01*
X0276625Y0144217D01*
X0276625Y0142082D01*
X0277693Y0141015D01*
X0280896Y0141015D01*
X0283071Y0141015D02*
X0283071Y0145285D01*
X0286274Y0145285D01*
X0287341Y0144217D01*
X0287341Y0141015D01*
X0289516Y0142082D02*
X0289516Y0144217D01*
X0290584Y0145285D01*
X0292719Y0145285D01*
X0293787Y0144217D01*
X0293787Y0143150D01*
X0289516Y0143150D01*
X0289516Y0142082D02*
X0290584Y0141015D01*
X0292719Y0141015D01*
X0295962Y0142082D02*
X0295962Y0144217D01*
X0297029Y0145285D01*
X0300232Y0145285D01*
X0300232Y0147420D02*
X0300232Y0141015D01*
X0297029Y0141015D01*
X0295962Y0142082D01*
X0308853Y0141015D02*
X0312056Y0141015D01*
X0313123Y0142082D01*
X0313123Y0144217D01*
X0312056Y0145285D01*
X0308853Y0145285D01*
X0308853Y0147420D02*
X0308853Y0141015D01*
X0315298Y0142082D02*
X0316366Y0141015D01*
X0319569Y0141015D01*
X0319569Y0139947D02*
X0318501Y0138879D01*
X0317434Y0138879D01*
X0319569Y0139947D02*
X0319569Y0145285D01*
X0315298Y0145285D02*
X0315298Y0142082D01*
X0328189Y0141015D02*
X0328189Y0147420D01*
X0330325Y0145285D01*
X0332460Y0147420D01*
X0332460Y0141015D01*
X0334635Y0142082D02*
X0335702Y0141015D01*
X0337838Y0141015D01*
X0338905Y0142082D01*
X0334635Y0142082D02*
X0334635Y0146352D01*
X0335702Y0147420D01*
X0337838Y0147420D01*
X0338905Y0146352D01*
X0346445Y0144600D02*
X0346445Y0171600D01*
X0346447Y0171660D01*
X0346452Y0171721D01*
X0346461Y0171780D01*
X0346474Y0171839D01*
X0346490Y0171898D01*
X0346510Y0171955D01*
X0346533Y0172010D01*
X0346560Y0172065D01*
X0346589Y0172117D01*
X0346622Y0172168D01*
X0346658Y0172217D01*
X0346696Y0172263D01*
X0346738Y0172307D01*
X0346782Y0172349D01*
X0346828Y0172387D01*
X0346877Y0172423D01*
X0346928Y0172456D01*
X0346980Y0172485D01*
X0347035Y0172512D01*
X0347090Y0172535D01*
X0347147Y0172555D01*
X0347206Y0172571D01*
X0347265Y0172584D01*
X0347324Y0172593D01*
X0347385Y0172598D01*
X0347445Y0172600D01*
X0357445Y0172600D01*
X0357505Y0172598D01*
X0357566Y0172593D01*
X0357625Y0172584D01*
X0357684Y0172571D01*
X0357743Y0172555D01*
X0357800Y0172535D01*
X0357855Y0172512D01*
X0357910Y0172485D01*
X0357962Y0172456D01*
X0358013Y0172423D01*
X0358062Y0172387D01*
X0358108Y0172349D01*
X0358152Y0172307D01*
X0358194Y0172263D01*
X0358232Y0172217D01*
X0358268Y0172168D01*
X0358301Y0172117D01*
X0358330Y0172065D01*
X0358357Y0172010D01*
X0358380Y0171955D01*
X0358400Y0171898D01*
X0358416Y0171839D01*
X0358429Y0171780D01*
X0358438Y0171721D01*
X0358443Y0171660D01*
X0358445Y0171600D01*
X0358445Y0144600D01*
X0358443Y0144540D01*
X0358438Y0144479D01*
X0358429Y0144420D01*
X0358416Y0144361D01*
X0358400Y0144302D01*
X0358380Y0144245D01*
X0358357Y0144190D01*
X0358330Y0144135D01*
X0358301Y0144083D01*
X0358268Y0144032D01*
X0358232Y0143983D01*
X0358194Y0143937D01*
X0358152Y0143893D01*
X0358108Y0143851D01*
X0358062Y0143813D01*
X0358013Y0143777D01*
X0357962Y0143744D01*
X0357910Y0143715D01*
X0357855Y0143688D01*
X0357800Y0143665D01*
X0357743Y0143645D01*
X0357684Y0143629D01*
X0357625Y0143616D01*
X0357566Y0143607D01*
X0357505Y0143602D01*
X0357445Y0143600D01*
X0347445Y0143600D01*
X0347385Y0143602D01*
X0347324Y0143607D01*
X0347265Y0143616D01*
X0347206Y0143629D01*
X0347147Y0143645D01*
X0347090Y0143665D01*
X0347035Y0143688D01*
X0346980Y0143715D01*
X0346928Y0143744D01*
X0346877Y0143777D01*
X0346828Y0143813D01*
X0346782Y0143851D01*
X0346738Y0143893D01*
X0346696Y0143937D01*
X0346658Y0143983D01*
X0346622Y0144032D01*
X0346589Y0144083D01*
X0346560Y0144135D01*
X0346533Y0144190D01*
X0346510Y0144245D01*
X0346490Y0144302D01*
X0346474Y0144361D01*
X0346461Y0144420D01*
X0346452Y0144479D01*
X0346447Y0144540D01*
X0346445Y0144600D01*
X0352445Y0152100D02*
X0352445Y0156900D01*
X0352445Y0159400D02*
X0352445Y0164100D01*
X0330311Y0165217D02*
X0330311Y0162015D01*
X0330311Y0165217D02*
X0329244Y0166285D01*
X0326041Y0166285D01*
X0326041Y0162015D01*
X0323866Y0163082D02*
X0323866Y0165217D01*
X0322798Y0166285D01*
X0320663Y0166285D01*
X0319595Y0165217D01*
X0319595Y0163082D01*
X0320663Y0162015D01*
X0322798Y0162015D01*
X0323866Y0163082D01*
X0322281Y0157920D02*
X0324416Y0155785D01*
X0326551Y0157920D01*
X0326551Y0151515D01*
X0322281Y0151515D02*
X0322281Y0157920D01*
X0320106Y0156852D02*
X0319038Y0157920D01*
X0316903Y0157920D01*
X0315836Y0156852D01*
X0315836Y0152582D01*
X0316903Y0151515D01*
X0319038Y0151515D01*
X0320106Y0152582D01*
X0320106Y0156852D01*
X0313660Y0156852D02*
X0313660Y0154717D01*
X0312593Y0153650D01*
X0309390Y0153650D01*
X0311525Y0153650D02*
X0313660Y0151515D01*
X0309390Y0151515D02*
X0309390Y0157920D01*
X0312593Y0157920D01*
X0313660Y0156852D01*
X0307215Y0156852D02*
X0307215Y0154717D01*
X0306147Y0153650D01*
X0302945Y0153650D01*
X0302945Y0151515D02*
X0302945Y0157920D01*
X0306147Y0157920D01*
X0307215Y0156852D01*
X0300769Y0157920D02*
X0296499Y0157920D01*
X0296499Y0151515D01*
X0300769Y0151515D01*
X0298634Y0154717D02*
X0296499Y0154717D01*
X0287878Y0154717D02*
X0287878Y0152582D01*
X0286811Y0151515D01*
X0283608Y0151515D01*
X0283608Y0157920D01*
X0283608Y0155785D02*
X0286811Y0155785D01*
X0287878Y0154717D01*
X0281440Y0155785D02*
X0278237Y0153650D01*
X0281440Y0151515D01*
X0278237Y0151515D02*
X0278237Y0157920D01*
X0276062Y0156852D02*
X0274994Y0157920D01*
X0272859Y0157920D01*
X0271791Y0156852D01*
X0269616Y0156852D02*
X0269616Y0155785D01*
X0268549Y0154717D01*
X0269616Y0153650D01*
X0269616Y0152582D01*
X0268549Y0151515D01*
X0266413Y0151515D01*
X0265346Y0152582D01*
X0267481Y0154717D02*
X0268549Y0154717D01*
X0269616Y0156852D02*
X0268549Y0157920D01*
X0266413Y0157920D01*
X0265346Y0156852D01*
X0271791Y0151515D02*
X0276062Y0155785D01*
X0276062Y0156852D01*
X0276062Y0151515D02*
X0271791Y0151515D01*
X0273396Y0148488D02*
X0273396Y0147420D01*
X0273396Y0145285D02*
X0272328Y0145285D01*
X0273396Y0145285D02*
X0273396Y0141015D01*
X0272328Y0141015D02*
X0274464Y0141015D01*
X0270153Y0142082D02*
X0269086Y0143150D01*
X0266950Y0143150D01*
X0265883Y0144217D01*
X0266950Y0145285D01*
X0270153Y0145285D01*
X0270153Y0142082D02*
X0269086Y0141015D01*
X0265883Y0141015D01*
X0263708Y0143150D02*
X0263708Y0144217D01*
X0262640Y0145285D01*
X0260505Y0145285D01*
X0259437Y0144217D01*
X0259437Y0142082D01*
X0260505Y0141015D01*
X0262640Y0141015D01*
X0263708Y0143150D02*
X0259437Y0143150D01*
X0257262Y0142082D02*
X0257262Y0146352D01*
X0256195Y0147420D01*
X0252992Y0147420D01*
X0252992Y0141015D01*
X0256195Y0141015D01*
X0257262Y0142082D01*
X0262653Y0162015D02*
X0261586Y0163082D01*
X0261586Y0167352D01*
X0262653Y0168420D01*
X0264789Y0168420D01*
X0265856Y0167352D01*
X0268031Y0165217D02*
X0269099Y0166285D01*
X0271234Y0166285D01*
X0272302Y0165217D01*
X0272302Y0163082D01*
X0271234Y0162015D01*
X0269099Y0162015D01*
X0268031Y0163082D01*
X0268031Y0165217D01*
X0265856Y0163082D02*
X0264789Y0162015D01*
X0262653Y0162015D01*
X0274477Y0162015D02*
X0276612Y0162015D01*
X0275544Y0162015D02*
X0275544Y0168420D01*
X0274477Y0168420D01*
X0278774Y0165217D02*
X0279841Y0166285D01*
X0281977Y0166285D01*
X0283044Y0165217D01*
X0283044Y0164150D01*
X0278774Y0164150D01*
X0278774Y0165217D02*
X0278774Y0163082D01*
X0279841Y0162015D01*
X0281977Y0162015D01*
X0285219Y0163082D02*
X0285219Y0165217D01*
X0286287Y0166285D01*
X0289490Y0166285D01*
X0291665Y0165217D02*
X0291665Y0163082D01*
X0292732Y0162015D01*
X0294868Y0162015D01*
X0295935Y0163082D01*
X0295935Y0165217D01*
X0294868Y0166285D01*
X0292732Y0166285D01*
X0291665Y0165217D01*
X0289490Y0162015D02*
X0286287Y0162015D01*
X0285219Y0163082D01*
X0298110Y0164150D02*
X0298110Y0168420D01*
X0302381Y0168420D02*
X0302381Y0164150D01*
X0300246Y0162015D01*
X0298110Y0164150D01*
X0304556Y0166285D02*
X0305623Y0166285D01*
X0305623Y0162015D01*
X0304556Y0162015D02*
X0306691Y0162015D01*
X0308853Y0162015D02*
X0312056Y0162015D01*
X0313123Y0163082D01*
X0312056Y0164150D01*
X0309920Y0164150D01*
X0308853Y0165217D01*
X0309920Y0166285D01*
X0313123Y0166285D01*
X0315298Y0166285D02*
X0316366Y0166285D01*
X0316366Y0162015D01*
X0315298Y0162015D02*
X0317434Y0162015D01*
X0316366Y0168420D02*
X0316366Y0169488D01*
X0305623Y0169488D02*
X0305623Y0168420D01*
X0330161Y0184947D02*
X0330161Y0192447D01*
X0330035Y0192449D01*
X0329910Y0192455D01*
X0329785Y0192465D01*
X0329660Y0192479D01*
X0329535Y0192496D01*
X0329411Y0192518D01*
X0329288Y0192543D01*
X0329166Y0192573D01*
X0329045Y0192606D01*
X0328925Y0192643D01*
X0328806Y0192683D01*
X0328689Y0192728D01*
X0328572Y0192776D01*
X0328458Y0192828D01*
X0328345Y0192883D01*
X0328234Y0192942D01*
X0328125Y0193004D01*
X0328018Y0193070D01*
X0327913Y0193139D01*
X0327810Y0193211D01*
X0327709Y0193286D01*
X0327611Y0193365D01*
X0327516Y0193447D01*
X0327423Y0193531D01*
X0327333Y0193619D01*
X0327245Y0193709D01*
X0327161Y0193802D01*
X0327079Y0193897D01*
X0327000Y0193995D01*
X0326925Y0194096D01*
X0326853Y0194199D01*
X0326784Y0194304D01*
X0326718Y0194411D01*
X0326656Y0194520D01*
X0326597Y0194631D01*
X0326542Y0194744D01*
X0326490Y0194858D01*
X0326442Y0194975D01*
X0326397Y0195092D01*
X0326357Y0195211D01*
X0326320Y0195331D01*
X0326287Y0195452D01*
X0326257Y0195574D01*
X0326232Y0195697D01*
X0326210Y0195821D01*
X0326193Y0195946D01*
X0326179Y0196071D01*
X0326169Y0196196D01*
X0326163Y0196321D01*
X0326161Y0196447D01*
X0326163Y0196573D01*
X0326169Y0196698D01*
X0326179Y0196823D01*
X0326193Y0196948D01*
X0326210Y0197073D01*
X0326232Y0197197D01*
X0326257Y0197320D01*
X0326287Y0197442D01*
X0326320Y0197563D01*
X0326357Y0197683D01*
X0326397Y0197802D01*
X0326442Y0197919D01*
X0326490Y0198036D01*
X0326542Y0198150D01*
X0326597Y0198263D01*
X0326656Y0198374D01*
X0326718Y0198483D01*
X0326784Y0198590D01*
X0326853Y0198695D01*
X0326925Y0198798D01*
X0327000Y0198899D01*
X0327079Y0198997D01*
X0327161Y0199092D01*
X0327245Y0199185D01*
X0327333Y0199275D01*
X0327423Y0199363D01*
X0327516Y0199447D01*
X0327611Y0199529D01*
X0327709Y0199608D01*
X0327810Y0199683D01*
X0327913Y0199755D01*
X0328018Y0199824D01*
X0328125Y0199890D01*
X0328234Y0199952D01*
X0328345Y0200011D01*
X0328458Y0200066D01*
X0328572Y0200118D01*
X0328689Y0200166D01*
X0328806Y0200211D01*
X0328925Y0200251D01*
X0329045Y0200288D01*
X0329166Y0200321D01*
X0329288Y0200351D01*
X0329411Y0200376D01*
X0329535Y0200398D01*
X0329660Y0200415D01*
X0329785Y0200429D01*
X0329910Y0200439D01*
X0330035Y0200445D01*
X0330161Y0200447D01*
X0330161Y0207947D01*
X0260161Y0207947D01*
X0260161Y0184947D01*
X0330161Y0184947D01*
D11*
X0349945Y0159400D02*
X0352445Y0159400D01*
X0354945Y0159400D01*
X0354945Y0156900D02*
X0352445Y0156900D01*
X0349945Y0156900D01*
D12*
X0342541Y0157162D02*
X0342541Y0160164D01*
X0342541Y0158663D02*
X0338038Y0158663D01*
X0339539Y0157162D01*
X0341791Y0155610D02*
X0342541Y0155610D01*
X0342541Y0154860D01*
X0341791Y0154860D01*
X0341791Y0155610D01*
X0341791Y0153258D02*
X0338788Y0153258D01*
X0341791Y0150256D01*
X0342541Y0151007D01*
X0342541Y0152508D01*
X0341791Y0153258D01*
X0341791Y0150256D02*
X0338788Y0150256D01*
X0338038Y0151007D01*
X0338038Y0152508D01*
X0338788Y0153258D01*
X0339539Y0166370D02*
X0341791Y0166370D01*
X0342541Y0167120D01*
X0342541Y0169372D01*
X0339539Y0169372D01*
X0340289Y0170974D02*
X0340289Y0172475D01*
X0338788Y0171724D02*
X0342541Y0171724D01*
X0338788Y0171724D02*
X0338038Y0172475D01*
X0320310Y0194197D02*
X0320310Y0198701D01*
X0317307Y0198701D02*
X0320310Y0194197D01*
X0317307Y0194197D02*
X0317307Y0198701D01*
X0314205Y0198701D02*
X0314205Y0194197D01*
X0312704Y0194197D02*
X0315706Y0194197D01*
X0312704Y0197199D02*
X0314205Y0198701D01*
X0311102Y0197950D02*
X0311102Y0197199D01*
X0308100Y0194197D01*
X0311102Y0194197D01*
X0311102Y0197950D02*
X0310352Y0198701D01*
X0308850Y0198701D01*
X0308100Y0197950D01*
X0306498Y0197950D02*
X0305748Y0198701D01*
X0304246Y0198701D01*
X0303496Y0197950D01*
X0303496Y0194947D01*
X0304246Y0194197D01*
X0305748Y0194197D01*
X0306498Y0194947D01*
X0301894Y0194197D02*
X0301894Y0198701D01*
X0301894Y0196449D02*
X0298892Y0196449D01*
X0297290Y0196449D02*
X0294288Y0196449D01*
X0296540Y0198701D01*
X0296540Y0194197D01*
X0298892Y0194197D02*
X0298892Y0198701D01*
X0292686Y0198701D02*
X0292686Y0197950D01*
X0289684Y0194947D01*
X0289684Y0194197D01*
X0289684Y0198701D02*
X0292686Y0198701D01*
D13*
X0311728Y0098818D02*
X0310677Y0097767D01*
X0311728Y0098818D02*
X0313830Y0098818D01*
X0314881Y0097767D01*
X0314881Y0096716D01*
X0310677Y0092513D01*
X0314881Y0092513D01*
X0317122Y0092513D02*
X0317122Y0093563D01*
X0321326Y0097767D01*
X0321326Y0098818D01*
X0317122Y0098818D01*
X0323568Y0097767D02*
X0323568Y0093563D01*
X0324619Y0092513D01*
X0326721Y0092513D01*
X0327772Y0093563D01*
X0330013Y0092513D02*
X0334217Y0096716D01*
X0334217Y0097767D01*
X0333166Y0098818D01*
X0331064Y0098818D01*
X0330013Y0097767D01*
X0327772Y0097767D02*
X0326721Y0098818D01*
X0324619Y0098818D01*
X0323568Y0097767D01*
X0330013Y0092513D02*
X0334217Y0092513D01*
X0336459Y0093563D02*
X0337510Y0092513D01*
X0339612Y0092513D01*
X0340663Y0093563D01*
X0340663Y0095665D01*
X0339612Y0096716D01*
X0338561Y0096716D01*
X0336459Y0095665D01*
X0336459Y0098818D01*
X0340663Y0098818D01*
X0342904Y0095665D02*
X0346057Y0095665D01*
X0347108Y0094614D01*
X0347108Y0093563D01*
X0346057Y0092513D01*
X0343955Y0092513D01*
X0342904Y0093563D01*
X0342904Y0095665D01*
X0345006Y0097767D01*
X0347108Y0098818D01*
M02*
