%
M48
M72
T01C0.0240
T02C0.0320
T03C0.1339
%
T01
X31610Y4246
X31610Y4966
X32600Y5416
X32060Y7396
T02
X22650Y6546
X23650Y6546
X24650Y6546
X25650Y6546
X26650Y6546
X27650Y6546
X28650Y6546
X29650Y6546
X30650Y6546
X31650Y6546
X32650Y6546
X33650Y6546
X34650Y6546
X35650Y6546
X35650Y12546
X34650Y12546
X33650Y12546
X32650Y12546
X31650Y12546
X30650Y12546
X29650Y12546
X28650Y12546
X27650Y12546
X26650Y12546
X25650Y12546
X24650Y12546
X23650Y12546
X22650Y12546
X26516Y18145
X27516Y18145
X28516Y18145
X29516Y18145
X30516Y18145
X31516Y18145
X32516Y18145
X35244Y16810
X35244Y14810
X32516Y21145
X31516Y21145
X30516Y21145
X29516Y21145
X28516Y21145
X27516Y21145
X26516Y21145
T03
X23571Y20196
X34792Y20196
M30
