G75*
%MOIN*%
%OFA0B0*%
%FSLAX25Y25*%
%IPPOS*%
%LPD*%
%AMOC8*
5,1,8,0,0,1.08239X$1,22.5*
%
%ADD10C,0.00600*%
D10*
X0254567Y0136832D02*
X0255635Y0135765D01*
X0257770Y0135765D01*
X0258838Y0136832D01*
X0258838Y0141102D01*
X0257770Y0142170D01*
X0255635Y0142170D01*
X0254567Y0141102D01*
X0261013Y0142170D02*
X0261013Y0135765D01*
X0265283Y0135765D02*
X0265283Y0142170D01*
X0263148Y0140035D01*
X0261013Y0142170D01*
X0269593Y0146265D02*
X0271729Y0146265D01*
X0270661Y0146265D02*
X0270661Y0150535D01*
X0271729Y0150535D01*
X0270661Y0152670D02*
X0270661Y0153738D01*
X0271191Y0156765D02*
X0271191Y0163170D01*
X0269056Y0161035D01*
X0266921Y0163170D01*
X0266921Y0156765D01*
X0273367Y0157832D02*
X0274434Y0156765D01*
X0276569Y0156765D01*
X0277637Y0157832D01*
X0277637Y0162102D01*
X0276569Y0163170D01*
X0274434Y0163170D01*
X0273367Y0162102D01*
X0273367Y0157832D01*
X0279812Y0156765D02*
X0281947Y0158900D01*
X0280880Y0158900D02*
X0284082Y0158900D01*
X0284082Y0156765D02*
X0284082Y0163170D01*
X0280880Y0163170D01*
X0279812Y0162102D01*
X0279812Y0159967D01*
X0280880Y0158900D01*
X0286258Y0159967D02*
X0287325Y0158900D01*
X0290528Y0158900D01*
X0290528Y0156765D02*
X0290528Y0163170D01*
X0287325Y0163170D01*
X0286258Y0162102D01*
X0286258Y0159967D01*
X0292703Y0156765D02*
X0296973Y0156765D01*
X0296973Y0163170D01*
X0292703Y0163170D01*
X0294838Y0159967D02*
X0296973Y0159967D01*
X0305594Y0159967D02*
X0305594Y0157832D01*
X0306662Y0156765D01*
X0309864Y0156765D01*
X0309864Y0163170D01*
X0309864Y0161035D02*
X0306662Y0161035D01*
X0305594Y0159967D01*
X0312033Y0161035D02*
X0315236Y0158900D01*
X0312033Y0156765D01*
X0315236Y0156765D02*
X0315236Y0163170D01*
X0317411Y0162102D02*
X0318478Y0163170D01*
X0320614Y0163170D01*
X0321681Y0162102D01*
X0323856Y0162102D02*
X0323856Y0161035D01*
X0324924Y0159967D01*
X0323856Y0158900D01*
X0323856Y0157832D01*
X0324924Y0156765D01*
X0327059Y0156765D01*
X0328127Y0157832D01*
X0325991Y0159967D02*
X0324924Y0159967D01*
X0323856Y0162102D02*
X0324924Y0163170D01*
X0327059Y0163170D01*
X0328127Y0162102D01*
X0328684Y0167265D02*
X0327616Y0168332D01*
X0328684Y0167265D02*
X0330819Y0167265D01*
X0331887Y0168332D01*
X0331887Y0172602D01*
X0330819Y0173670D01*
X0328684Y0173670D01*
X0327616Y0172602D01*
X0325441Y0170467D02*
X0325441Y0168332D01*
X0324373Y0167265D01*
X0322238Y0167265D01*
X0321171Y0168332D01*
X0321171Y0170467D01*
X0322238Y0171535D01*
X0324373Y0171535D01*
X0325441Y0170467D01*
X0318996Y0167265D02*
X0316860Y0167265D01*
X0317928Y0167265D02*
X0317928Y0173670D01*
X0318996Y0173670D01*
X0314699Y0170467D02*
X0313631Y0171535D01*
X0311496Y0171535D01*
X0310428Y0170467D01*
X0310428Y0169400D01*
X0314699Y0169400D01*
X0314699Y0170467D02*
X0314699Y0168332D01*
X0313631Y0167265D01*
X0311496Y0167265D01*
X0308253Y0168332D02*
X0307185Y0167265D01*
X0303983Y0167265D01*
X0301808Y0168332D02*
X0300740Y0167265D01*
X0298605Y0167265D01*
X0297537Y0168332D01*
X0297537Y0170467D01*
X0298605Y0171535D01*
X0300740Y0171535D01*
X0301808Y0170467D01*
X0301808Y0168332D01*
X0303983Y0171535D02*
X0307185Y0171535D01*
X0308253Y0170467D01*
X0308253Y0168332D01*
X0317411Y0162102D02*
X0317411Y0161035D01*
X0321681Y0156765D01*
X0317411Y0156765D01*
X0312550Y0152670D02*
X0309347Y0152670D01*
X0308280Y0151602D01*
X0308280Y0150535D01*
X0309347Y0149467D01*
X0312550Y0149467D01*
X0312550Y0146265D02*
X0309347Y0146265D01*
X0308280Y0147332D01*
X0308280Y0148400D01*
X0309347Y0149467D01*
X0306105Y0150535D02*
X0305037Y0150535D01*
X0305037Y0146265D01*
X0306105Y0146265D02*
X0303969Y0146265D01*
X0300740Y0147332D02*
X0299672Y0146265D01*
X0300740Y0147332D02*
X0300740Y0151602D01*
X0301808Y0150535D02*
X0299672Y0150535D01*
X0305037Y0152670D02*
X0305037Y0153738D01*
X0312550Y0152670D02*
X0312550Y0146265D01*
X0320076Y0143238D02*
X0320076Y0142170D01*
X0320076Y0140035D02*
X0320076Y0135765D01*
X0319009Y0135765D02*
X0321144Y0135765D01*
X0323319Y0136832D02*
X0324387Y0137900D01*
X0326522Y0137900D01*
X0327590Y0138967D01*
X0326522Y0140035D01*
X0323319Y0140035D01*
X0321144Y0140035D02*
X0320076Y0140035D01*
X0316847Y0138967D02*
X0316847Y0136832D01*
X0315779Y0135765D01*
X0312577Y0135765D01*
X0312577Y0134697D02*
X0312577Y0140035D01*
X0315779Y0140035D01*
X0316847Y0138967D01*
X0310402Y0140035D02*
X0307199Y0140035D01*
X0306131Y0138967D01*
X0306131Y0135765D01*
X0303956Y0136832D02*
X0302888Y0135765D01*
X0300753Y0135765D01*
X0299686Y0137900D02*
X0303956Y0137900D01*
X0303956Y0138967D02*
X0303956Y0136832D01*
X0303956Y0138967D02*
X0302888Y0140035D01*
X0300753Y0140035D01*
X0299686Y0138967D01*
X0299686Y0137900D01*
X0297511Y0138967D02*
X0296443Y0140035D01*
X0293240Y0140035D01*
X0293240Y0142170D02*
X0293240Y0135765D01*
X0296443Y0135765D01*
X0297511Y0136832D01*
X0297511Y0138967D01*
X0291065Y0146265D02*
X0291065Y0152670D01*
X0288930Y0150535D01*
X0286795Y0152670D01*
X0286795Y0146265D01*
X0284620Y0146265D02*
X0282484Y0146265D01*
X0283552Y0146265D02*
X0283552Y0150535D01*
X0284620Y0150535D01*
X0283552Y0152670D02*
X0283552Y0153738D01*
X0280323Y0152670D02*
X0279255Y0152670D01*
X0279255Y0146265D01*
X0280323Y0146265D02*
X0278187Y0146265D01*
X0276026Y0146265D02*
X0273890Y0146265D01*
X0274958Y0146265D02*
X0274958Y0152670D01*
X0276026Y0152670D01*
X0284620Y0142170D02*
X0284620Y0135765D01*
X0281417Y0135765D01*
X0280349Y0136832D01*
X0280349Y0138967D01*
X0281417Y0140035D01*
X0284620Y0140035D01*
X0278174Y0140035D02*
X0278174Y0136832D01*
X0277106Y0135765D01*
X0273904Y0135765D01*
X0273904Y0134697D02*
X0274971Y0133629D01*
X0276039Y0133629D01*
X0273904Y0134697D02*
X0273904Y0140035D01*
X0310402Y0140035D02*
X0310402Y0135765D01*
X0312577Y0134697D02*
X0313644Y0133629D01*
X0314712Y0133629D01*
X0323319Y0136832D02*
X0324387Y0135765D01*
X0327590Y0135765D01*
X0329765Y0137900D02*
X0334035Y0137900D01*
X0334035Y0138967D02*
X0334035Y0136832D01*
X0332967Y0135765D01*
X0330832Y0135765D01*
X0329765Y0137900D02*
X0329765Y0138967D01*
X0330832Y0140035D01*
X0332967Y0140035D01*
X0334035Y0138967D01*
X0336210Y0136832D02*
X0336210Y0141102D01*
X0337278Y0142170D01*
X0340481Y0142170D01*
X0340481Y0135765D01*
X0337278Y0135765D01*
X0336210Y0136832D01*
X0325441Y0147332D02*
X0324373Y0146265D01*
X0322238Y0146265D01*
X0321171Y0147332D01*
X0321171Y0148400D01*
X0322238Y0149467D01*
X0324373Y0149467D01*
X0325441Y0150535D01*
X0325441Y0151602D01*
X0324373Y0152670D01*
X0322238Y0152670D01*
X0321171Y0151602D01*
X0321171Y0150535D01*
X0322238Y0149467D01*
X0324373Y0149467D02*
X0325441Y0148400D01*
X0325441Y0147332D01*
X0295362Y0169400D02*
X0293227Y0167265D01*
X0291092Y0169400D01*
X0291092Y0173670D01*
X0288917Y0171535D02*
X0287849Y0171535D01*
X0287849Y0167265D01*
X0288917Y0167265D02*
X0286781Y0167265D01*
X0284620Y0167265D02*
X0281417Y0167265D01*
X0280349Y0168332D01*
X0281417Y0169400D01*
X0283552Y0169400D01*
X0284620Y0170467D01*
X0283552Y0171535D01*
X0280349Y0171535D01*
X0278174Y0171535D02*
X0277106Y0171535D01*
X0277106Y0167265D01*
X0276039Y0167265D02*
X0278174Y0167265D01*
X0273877Y0168332D02*
X0272809Y0167265D01*
X0270674Y0167265D01*
X0269607Y0168332D01*
X0269607Y0170467D01*
X0270674Y0171535D01*
X0272809Y0171535D01*
X0273877Y0170467D01*
X0273877Y0168332D01*
X0277106Y0173670D02*
X0277106Y0174738D01*
X0287849Y0174738D02*
X0287849Y0173670D01*
X0295362Y0173670D02*
X0295362Y0169400D01*
X0267432Y0167265D02*
X0267432Y0171535D01*
X0264229Y0171535D01*
X0263161Y0170467D01*
X0263161Y0167265D01*
M02*
