G75*
%MOIN*%
%OFA0B0*%
%FSLAX25Y25*%
%IPPOS*%
%LPD*%
%AMOC8*
5,1,8,0,0,1.08239X$1,22.5*
%
%ADD10OC8,0.07600*%
%ADD11C,0.05200*%
%ADD12R,0.05000X0.35000*%
%ADD13C,0.01000*%
%ADD14C,0.01600*%
%ADD15C,0.03600*%
D10*
X0352445Y0148100D03*
X0352445Y0168100D03*
D11*
X0325161Y0178847D02*
X0325161Y0184047D01*
X0315161Y0184047D02*
X0315161Y0178847D01*
X0305161Y0178847D02*
X0305161Y0184047D01*
X0295161Y0184047D02*
X0295161Y0178847D01*
X0285161Y0178847D02*
X0285161Y0184047D01*
X0275161Y0184047D02*
X0275161Y0178847D01*
X0265161Y0178847D02*
X0265161Y0184047D01*
X0265161Y0208847D02*
X0265161Y0214047D01*
X0275161Y0214047D02*
X0275161Y0208847D01*
X0285161Y0208847D02*
X0285161Y0214047D01*
X0295161Y0214047D02*
X0295161Y0208847D01*
X0305161Y0208847D02*
X0305161Y0214047D01*
X0315161Y0214047D02*
X0315161Y0208847D01*
X0325161Y0208847D02*
X0325161Y0214047D01*
X0326500Y0128063D02*
X0326500Y0122863D01*
X0316500Y0122863D02*
X0316500Y0128063D01*
X0306500Y0128063D02*
X0306500Y0122863D01*
X0296500Y0122863D02*
X0296500Y0128063D01*
X0286500Y0128063D02*
X0286500Y0122863D01*
X0276500Y0122863D02*
X0276500Y0128063D01*
X0266500Y0128063D02*
X0266500Y0122863D01*
X0256500Y0122863D02*
X0256500Y0128063D01*
X0246500Y0128063D02*
X0246500Y0122863D01*
X0236500Y0122863D02*
X0236500Y0128063D01*
X0226500Y0128063D02*
X0226500Y0122863D01*
X0226500Y0068063D02*
X0226500Y0062863D01*
X0236500Y0062863D02*
X0236500Y0068063D01*
X0246500Y0068063D02*
X0246500Y0062863D01*
X0256500Y0062863D02*
X0256500Y0068063D01*
X0266500Y0068063D02*
X0266500Y0062863D01*
X0276500Y0062863D02*
X0276500Y0068063D01*
X0286500Y0068063D02*
X0286500Y0062863D01*
X0296500Y0062863D02*
X0296500Y0068063D01*
X0306500Y0068063D02*
X0306500Y0062863D01*
X0316500Y0062863D02*
X0316500Y0068063D01*
X0326500Y0068063D02*
X0326500Y0062863D01*
X0336500Y0062863D02*
X0336500Y0068063D01*
X0346500Y0068063D02*
X0346500Y0062863D01*
X0356500Y0062863D02*
X0356500Y0068063D01*
X0356500Y0122863D02*
X0356500Y0128063D01*
X0346500Y0128063D02*
X0346500Y0122863D01*
X0336500Y0122863D02*
X0336500Y0128063D01*
D12*
X0332031Y0022293D03*
X0322031Y0022293D03*
X0312031Y0022293D03*
X0302031Y0022293D03*
X0292031Y0022293D03*
X0282031Y0022293D03*
X0272031Y0022293D03*
X0262031Y0022293D03*
X0252031Y0022293D03*
X0242031Y0022293D03*
X0232031Y0022293D03*
X0222031Y0022293D03*
X0342031Y0022293D03*
X0352031Y0022293D03*
X0362031Y0022293D03*
D13*
X0362000Y0022660D01*
X0356600Y0028060D01*
X0356600Y0064960D01*
X0356500Y0065463D01*
X0356600Y0065860D01*
X0356600Y0125260D01*
X0356500Y0125463D01*
X0346700Y0125260D02*
X0346500Y0125463D01*
X0346700Y0125260D02*
X0346700Y0073960D01*
X0351200Y0069460D01*
X0351200Y0061360D01*
X0348500Y0058660D01*
X0335000Y0058660D01*
X0330500Y0063160D01*
X0330500Y0070360D01*
X0328700Y0072160D01*
X0324200Y0072160D01*
X0322400Y0070360D01*
X0322400Y0044260D01*
X0331400Y0035260D01*
X0331400Y0022660D01*
X0332031Y0022293D01*
X0322031Y0022293D02*
X0321500Y0022660D01*
X0320600Y0023560D01*
X0320600Y0073960D01*
X0318800Y0077560D02*
X0312500Y0071260D01*
X0312500Y0022660D01*
X0312031Y0022293D01*
X0302031Y0022293D02*
X0301700Y0022660D01*
X0301700Y0128860D01*
X0285500Y0145060D01*
X0285500Y0181060D01*
X0285161Y0181447D01*
X0289100Y0179260D02*
X0289100Y0186460D01*
X0287300Y0188260D01*
X0283700Y0188260D01*
X0281000Y0185560D01*
X0281000Y0078460D01*
X0272000Y0069460D01*
X0272000Y0044260D01*
X0281900Y0034360D01*
X0281900Y0022660D01*
X0282031Y0022293D01*
X0287300Y0027160D02*
X0291800Y0022660D01*
X0292031Y0022293D01*
X0287300Y0027160D02*
X0287300Y0064960D01*
X0286500Y0065463D01*
X0284600Y0072160D02*
X0278300Y0065860D01*
X0276500Y0065860D01*
X0276500Y0065463D01*
X0266600Y0064960D02*
X0266500Y0065463D01*
X0266600Y0064960D02*
X0266600Y0028060D01*
X0272000Y0022660D01*
X0272031Y0022293D01*
X0262031Y0022293D02*
X0261200Y0022660D01*
X0256700Y0027160D01*
X0256700Y0064960D01*
X0256500Y0065463D01*
X0246800Y0064960D02*
X0246500Y0065463D01*
X0246800Y0064960D02*
X0246800Y0027160D01*
X0251300Y0022660D01*
X0252031Y0022293D01*
X0242031Y0022293D02*
X0241400Y0022660D01*
X0236900Y0027160D01*
X0236900Y0064960D01*
X0236500Y0065463D01*
X0227000Y0064960D02*
X0226500Y0065463D01*
X0227000Y0064960D02*
X0227000Y0027160D01*
X0231500Y0022660D01*
X0232031Y0022293D01*
X0222500Y0022660D02*
X0222031Y0022293D01*
X0222500Y0022660D02*
X0222500Y0070360D01*
X0230600Y0078460D01*
X0230600Y0127960D01*
X0274700Y0172060D01*
X0274700Y0181060D01*
X0275161Y0181447D01*
X0289100Y0179260D02*
X0310700Y0157660D01*
X0310700Y0120760D01*
X0307100Y0117160D01*
X0307100Y0065860D01*
X0306500Y0065463D01*
X0296500Y0065463D02*
X0296300Y0065860D01*
X0290000Y0072160D01*
X0284600Y0072160D01*
X0318800Y0077560D02*
X0334100Y0077560D01*
X0345800Y0065860D01*
X0346500Y0065463D01*
X0326900Y0064960D02*
X0326900Y0059560D01*
X0351200Y0035260D01*
X0351200Y0022660D01*
X0352031Y0022293D01*
X0342031Y0022293D02*
X0341300Y0022660D01*
X0341300Y0035260D01*
X0326000Y0050560D01*
X0326000Y0054160D01*
X0316100Y0049660D02*
X0316100Y0042460D01*
X0326900Y0064960D02*
X0326500Y0065463D01*
X0227000Y0126160D02*
X0226500Y0125463D01*
X0227000Y0126160D02*
X0227000Y0172960D01*
X0264800Y0210760D01*
X0265161Y0211447D01*
X0285161Y0211447D02*
X0285500Y0211660D01*
X0294500Y0211660D01*
X0295161Y0211447D01*
X0315161Y0211447D02*
X0315200Y0211660D01*
X0325100Y0211660D01*
X0325161Y0211447D01*
X0325161Y0181447D02*
X0326000Y0181060D01*
X0328700Y0181060D01*
X0341300Y0168460D01*
X0341300Y0163960D01*
X0349400Y0155860D01*
X0349400Y0154060D01*
X0353000Y0150460D01*
X0353000Y0148660D01*
X0352445Y0148100D01*
D14*
X0219359Y0131698D02*
X0219359Y0110802D01*
X0222987Y0110802D01*
X0224935Y0109995D01*
X0225300Y0109630D01*
X0225300Y0118626D01*
X0224811Y0118785D01*
X0224194Y0119099D01*
X0223634Y0119506D01*
X0223144Y0119996D01*
X0222737Y0120556D01*
X0222422Y0121174D01*
X0222208Y0121832D01*
X0222100Y0122516D01*
X0222100Y0125463D01*
X0225300Y0125463D01*
X0225300Y0125463D01*
X0222100Y0125463D01*
X0222100Y0128409D01*
X0222208Y0129093D01*
X0222422Y0129752D01*
X0222737Y0130369D01*
X0223144Y0130929D01*
X0223634Y0131419D01*
X0224194Y0131826D01*
X0224811Y0132140D01*
X0225470Y0132354D01*
X0226154Y0132463D01*
X0226500Y0132463D01*
X0226500Y0131355D01*
X0226500Y0131356D01*
X0226500Y0132463D01*
X0226846Y0132463D01*
X0227503Y0132359D01*
X0227598Y0132453D01*
X0266591Y0171447D01*
X0263689Y0171447D01*
X0260970Y0172573D01*
X0258888Y0174655D01*
X0257761Y0177375D01*
X0257761Y0185519D01*
X0258888Y0188239D01*
X0260970Y0190320D01*
X0263689Y0191447D01*
X0266633Y0191447D01*
X0269353Y0190320D01*
X0270161Y0189512D01*
X0270970Y0190320D01*
X0273689Y0191447D01*
X0276633Y0191447D01*
X0278584Y0190639D01*
X0280698Y0192753D01*
X0282646Y0193560D01*
X0288354Y0193560D01*
X0290302Y0192753D01*
X0291793Y0191262D01*
X0292218Y0190837D01*
X0293689Y0191447D01*
X0296633Y0191447D01*
X0299353Y0190320D01*
X0300161Y0189512D01*
X0300970Y0190320D01*
X0303689Y0191447D01*
X0306633Y0191447D01*
X0309353Y0190320D01*
X0310161Y0189512D01*
X0310970Y0190320D01*
X0313689Y0191447D01*
X0316633Y0191447D01*
X0319353Y0190320D01*
X0320161Y0189512D01*
X0320970Y0190320D01*
X0323689Y0191447D01*
X0326633Y0191447D01*
X0329353Y0190320D01*
X0331435Y0188239D01*
X0332561Y0185519D01*
X0332561Y0184694D01*
X0344302Y0172953D01*
X0345793Y0171462D01*
X0346600Y0169514D01*
X0346600Y0166156D01*
X0346845Y0165911D01*
X0346845Y0168100D01*
X0352445Y0168100D01*
X0352445Y0162500D01*
X0354764Y0162500D01*
X0358045Y0165781D01*
X0358045Y0168100D01*
X0352445Y0168100D01*
X0352445Y0168100D01*
X0352445Y0168100D01*
X0352445Y0162500D01*
X0350255Y0162500D01*
X0352402Y0160353D01*
X0353893Y0158862D01*
X0354700Y0156914D01*
X0354700Y0156700D01*
X0356007Y0156700D01*
X0358365Y0154342D01*
X0358365Y0173485D01*
X0359172Y0175433D01*
X0360663Y0176924D01*
X0362611Y0177731D01*
X0366239Y0177731D01*
X0366239Y0220281D01*
X0309393Y0220281D01*
X0311435Y0218239D01*
X0311932Y0217039D01*
X0312295Y0217403D01*
X0312855Y0217810D01*
X0313472Y0218124D01*
X0314131Y0218338D01*
X0314815Y0218447D01*
X0315161Y0218447D01*
X0315161Y0211447D01*
X0315161Y0211447D01*
X0315161Y0211447D01*
X0315161Y0204447D01*
X0314815Y0204447D01*
X0314131Y0204555D01*
X0313472Y0204769D01*
X0312855Y0205084D01*
X0312295Y0205491D01*
X0311932Y0205854D01*
X0311435Y0204655D01*
X0309353Y0202573D01*
X0306633Y0201447D01*
X0303689Y0201447D01*
X0300970Y0202573D01*
X0298888Y0204655D01*
X0298391Y0205854D01*
X0298028Y0205491D01*
X0297468Y0205084D01*
X0296850Y0204769D01*
X0296192Y0204555D01*
X0295508Y0204447D01*
X0295161Y0204447D01*
X0295161Y0211447D01*
X0295161Y0211447D01*
X0290761Y0211447D01*
X0290761Y0214393D01*
X0290870Y0215077D01*
X0291084Y0215736D01*
X0291398Y0216353D01*
X0291805Y0216913D01*
X0292295Y0217403D01*
X0292855Y0217810D01*
X0293472Y0218124D01*
X0294131Y0218338D01*
X0294815Y0218447D01*
X0295161Y0218447D01*
X0295161Y0211447D01*
X0295161Y0211447D01*
X0290761Y0211447D01*
X0290761Y0208501D01*
X0290870Y0207817D01*
X0291084Y0207158D01*
X0291398Y0206541D01*
X0291805Y0205980D01*
X0292295Y0205491D01*
X0292855Y0205084D01*
X0293472Y0204769D01*
X0294131Y0204555D01*
X0294815Y0204447D01*
X0295161Y0204447D01*
X0295161Y0211447D01*
X0295161Y0211447D01*
X0295161Y0218447D01*
X0295508Y0218447D01*
X0296192Y0218338D01*
X0296850Y0218124D01*
X0297468Y0217810D01*
X0298028Y0217403D01*
X0298391Y0217039D01*
X0298888Y0218239D01*
X0300930Y0220281D01*
X0279393Y0220281D01*
X0281435Y0218239D01*
X0281932Y0217039D01*
X0282295Y0217403D01*
X0282855Y0217810D01*
X0283472Y0218124D01*
X0284131Y0218338D01*
X0284815Y0218447D01*
X0285161Y0218447D01*
X0285161Y0211447D01*
X0285161Y0211447D01*
X0285161Y0211447D01*
X0285161Y0204447D01*
X0284815Y0204447D01*
X0284131Y0204555D01*
X0283472Y0204769D01*
X0282855Y0205084D01*
X0282295Y0205491D01*
X0281932Y0205854D01*
X0281435Y0204655D01*
X0279353Y0202573D01*
X0276633Y0201447D01*
X0273689Y0201447D01*
X0270970Y0202573D01*
X0268888Y0204655D01*
X0268391Y0205854D01*
X0268028Y0205491D01*
X0267468Y0205084D01*
X0266850Y0204769D01*
X0266192Y0204555D01*
X0265508Y0204447D01*
X0265161Y0204447D01*
X0265161Y0211447D01*
X0265161Y0211447D01*
X0260761Y0211447D01*
X0260761Y0214393D01*
X0260870Y0215077D01*
X0261084Y0215736D01*
X0261398Y0216353D01*
X0261805Y0216913D01*
X0262295Y0217403D01*
X0262855Y0217810D01*
X0263472Y0218124D01*
X0264131Y0218338D01*
X0264815Y0218447D01*
X0265161Y0218447D01*
X0265161Y0211447D01*
X0265161Y0211447D01*
X0260761Y0211447D01*
X0260761Y0208501D01*
X0260870Y0207817D01*
X0261084Y0207158D01*
X0261398Y0206541D01*
X0261805Y0205980D01*
X0262295Y0205491D01*
X0262855Y0205084D01*
X0263472Y0204769D01*
X0264131Y0204555D01*
X0264815Y0204447D01*
X0265161Y0204447D01*
X0265161Y0211447D01*
X0265161Y0211447D01*
X0265161Y0218447D01*
X0265508Y0218447D01*
X0266192Y0218338D01*
X0266850Y0218124D01*
X0267468Y0217810D01*
X0268028Y0217403D01*
X0268391Y0217039D01*
X0268888Y0218239D01*
X0270930Y0220281D01*
X0219359Y0220281D01*
X0219359Y0167889D01*
X0222987Y0167889D01*
X0224935Y0167082D01*
X0226426Y0165591D01*
X0227233Y0163643D01*
X0227233Y0135944D01*
X0226426Y0133996D01*
X0224935Y0132505D01*
X0222987Y0131698D01*
X0219359Y0131698D01*
X0219359Y0131021D02*
X0223236Y0131021D01*
X0222315Y0129422D02*
X0219359Y0129422D01*
X0219359Y0127824D02*
X0222100Y0127824D01*
X0222100Y0126225D02*
X0219359Y0126225D01*
X0219359Y0124627D02*
X0222100Y0124627D01*
X0222100Y0123028D02*
X0219359Y0123028D01*
X0219359Y0121430D02*
X0222339Y0121430D01*
X0223309Y0119831D02*
X0219359Y0119831D01*
X0219359Y0118233D02*
X0225300Y0118233D01*
X0225300Y0116634D02*
X0219359Y0116634D01*
X0219359Y0115036D02*
X0225300Y0115036D01*
X0225300Y0113437D02*
X0219359Y0113437D01*
X0219359Y0111839D02*
X0225300Y0111839D01*
X0225300Y0110240D02*
X0224344Y0110240D01*
X0225050Y0132619D02*
X0227764Y0132619D01*
X0226518Y0134218D02*
X0229362Y0134218D01*
X0230961Y0135816D02*
X0227180Y0135816D01*
X0227233Y0137415D02*
X0232559Y0137415D01*
X0234158Y0139013D02*
X0227233Y0139013D01*
X0227233Y0140612D02*
X0235756Y0140612D01*
X0237355Y0142210D02*
X0227233Y0142210D01*
X0227233Y0143809D02*
X0238953Y0143809D01*
X0240552Y0145407D02*
X0227233Y0145407D01*
X0227233Y0147006D02*
X0242150Y0147006D01*
X0243749Y0148604D02*
X0227233Y0148604D01*
X0227233Y0150203D02*
X0245347Y0150203D01*
X0246946Y0151801D02*
X0227233Y0151801D01*
X0227233Y0153400D02*
X0248544Y0153400D01*
X0250143Y0154998D02*
X0227233Y0154998D01*
X0227233Y0156597D02*
X0251741Y0156597D01*
X0253340Y0158195D02*
X0227233Y0158195D01*
X0227233Y0159794D02*
X0254938Y0159794D01*
X0256537Y0161392D02*
X0227233Y0161392D01*
X0227233Y0162991D02*
X0258135Y0162991D01*
X0259734Y0164589D02*
X0226841Y0164589D01*
X0225829Y0166188D02*
X0261332Y0166188D01*
X0262931Y0167786D02*
X0223234Y0167786D01*
X0219359Y0169385D02*
X0264529Y0169385D01*
X0266128Y0170983D02*
X0219359Y0170983D01*
X0219359Y0172582D02*
X0260961Y0172582D01*
X0259363Y0174180D02*
X0219359Y0174180D01*
X0219359Y0175779D02*
X0258422Y0175779D01*
X0257761Y0177377D02*
X0219359Y0177377D01*
X0219359Y0178976D02*
X0257761Y0178976D01*
X0257761Y0180575D02*
X0219359Y0180575D01*
X0219359Y0182173D02*
X0257761Y0182173D01*
X0257761Y0183772D02*
X0219359Y0183772D01*
X0219359Y0185370D02*
X0257761Y0185370D01*
X0258362Y0186969D02*
X0219359Y0186969D01*
X0219359Y0188567D02*
X0259216Y0188567D01*
X0260815Y0190166D02*
X0219359Y0190166D01*
X0219359Y0191764D02*
X0230384Y0191764D01*
X0231276Y0191249D02*
X0234200Y0190466D01*
X0237226Y0190466D01*
X0240149Y0191249D01*
X0242769Y0192762D01*
X0244909Y0194902D01*
X0246422Y0197523D01*
X0247205Y0200446D01*
X0247205Y0203472D01*
X0246422Y0206395D01*
X0244909Y0209015D01*
X0242769Y0211155D01*
X0240149Y0212668D01*
X0237226Y0213452D01*
X0234200Y0213452D01*
X0231276Y0212668D01*
X0228656Y0211155D01*
X0226516Y0209015D01*
X0225003Y0206395D01*
X0224220Y0203472D01*
X0224220Y0200446D01*
X0225003Y0197523D01*
X0226516Y0194902D01*
X0228656Y0192762D01*
X0231276Y0191249D01*
X0228055Y0193363D02*
X0219359Y0193363D01*
X0219359Y0194961D02*
X0226482Y0194961D01*
X0225559Y0196560D02*
X0219359Y0196560D01*
X0219359Y0198158D02*
X0224833Y0198158D01*
X0224404Y0199757D02*
X0219359Y0199757D01*
X0219359Y0201355D02*
X0224220Y0201355D01*
X0224220Y0202954D02*
X0219359Y0202954D01*
X0219359Y0204552D02*
X0224509Y0204552D01*
X0224938Y0206151D02*
X0219359Y0206151D01*
X0219359Y0207749D02*
X0225785Y0207749D01*
X0226848Y0209348D02*
X0219359Y0209348D01*
X0219359Y0210946D02*
X0228447Y0210946D01*
X0231062Y0212545D02*
X0219359Y0212545D01*
X0219359Y0214143D02*
X0260761Y0214143D01*
X0260761Y0212545D02*
X0240363Y0212545D01*
X0242978Y0210946D02*
X0260761Y0210946D01*
X0260761Y0209348D02*
X0244577Y0209348D01*
X0245640Y0207749D02*
X0260892Y0207749D01*
X0261682Y0206151D02*
X0246488Y0206151D01*
X0246916Y0204552D02*
X0264150Y0204552D01*
X0265161Y0204552D02*
X0265161Y0204552D01*
X0266173Y0204552D02*
X0268991Y0204552D01*
X0270589Y0202954D02*
X0247205Y0202954D01*
X0247205Y0201355D02*
X0336424Y0201355D01*
X0336424Y0200446D02*
X0337208Y0197523D01*
X0338721Y0194902D01*
X0340861Y0192762D01*
X0343481Y0191249D01*
X0346404Y0190466D01*
X0349430Y0190466D01*
X0352353Y0191249D01*
X0354974Y0192762D01*
X0357114Y0194902D01*
X0358627Y0197523D01*
X0359410Y0200446D01*
X0359410Y0203472D01*
X0358627Y0206395D01*
X0357114Y0209015D01*
X0354974Y0211155D01*
X0352353Y0212668D01*
X0349430Y0213452D01*
X0346404Y0213452D01*
X0343481Y0212668D01*
X0340861Y0211155D01*
X0338721Y0209015D01*
X0337208Y0206395D01*
X0336424Y0203472D01*
X0336424Y0200446D01*
X0336609Y0199757D02*
X0247021Y0199757D01*
X0246593Y0198158D02*
X0337037Y0198158D01*
X0337764Y0196560D02*
X0245866Y0196560D01*
X0244943Y0194961D02*
X0338686Y0194961D01*
X0340260Y0193363D02*
X0288831Y0193363D01*
X0291291Y0191764D02*
X0342589Y0191764D01*
X0353246Y0191764D02*
X0366239Y0191764D01*
X0366239Y0190166D02*
X0329508Y0190166D01*
X0331106Y0188567D02*
X0366239Y0188567D01*
X0366239Y0186969D02*
X0331961Y0186969D01*
X0332561Y0185370D02*
X0366239Y0185370D01*
X0366239Y0183772D02*
X0333484Y0183772D01*
X0335083Y0182173D02*
X0366239Y0182173D01*
X0366239Y0180575D02*
X0336681Y0180575D01*
X0338280Y0178976D02*
X0366239Y0178976D01*
X0361757Y0177377D02*
X0339878Y0177377D01*
X0341477Y0175779D02*
X0359518Y0175779D01*
X0358653Y0174180D02*
X0343075Y0174180D01*
X0344674Y0172582D02*
X0349007Y0172582D01*
X0350125Y0173700D02*
X0346845Y0170420D01*
X0346845Y0168100D01*
X0352445Y0168100D01*
X0352445Y0168100D01*
X0358045Y0168100D01*
X0358045Y0170420D01*
X0354764Y0173700D01*
X0352445Y0173700D01*
X0352445Y0168101D01*
X0352445Y0168101D01*
X0352445Y0173700D01*
X0350125Y0173700D01*
X0352445Y0172582D02*
X0352445Y0172582D01*
X0352445Y0170983D02*
X0352445Y0170983D01*
X0352445Y0169385D02*
X0352445Y0169385D01*
X0352445Y0167786D02*
X0352445Y0167786D01*
X0352445Y0166188D02*
X0352445Y0166188D01*
X0352445Y0164589D02*
X0352445Y0164589D01*
X0352445Y0162991D02*
X0352445Y0162991D01*
X0351363Y0161392D02*
X0358365Y0161392D01*
X0358365Y0159794D02*
X0352962Y0159794D01*
X0354169Y0158195D02*
X0358365Y0158195D01*
X0358365Y0156597D02*
X0356111Y0156597D01*
X0357709Y0154998D02*
X0358365Y0154998D01*
X0358365Y0162991D02*
X0355255Y0162991D01*
X0356853Y0164589D02*
X0358365Y0164589D01*
X0358365Y0166188D02*
X0358045Y0166188D01*
X0358045Y0167786D02*
X0358365Y0167786D01*
X0358365Y0169385D02*
X0358045Y0169385D01*
X0358365Y0170983D02*
X0357481Y0170983D01*
X0358365Y0172582D02*
X0355883Y0172582D01*
X0347408Y0170983D02*
X0345992Y0170983D01*
X0346600Y0169385D02*
X0346845Y0169385D01*
X0346845Y0167786D02*
X0346600Y0167786D01*
X0346600Y0166188D02*
X0346845Y0166188D01*
X0320815Y0190166D02*
X0319508Y0190166D01*
X0310815Y0190166D02*
X0309508Y0190166D01*
X0300815Y0190166D02*
X0299508Y0190166D01*
X0282169Y0193363D02*
X0243370Y0193363D01*
X0241041Y0191764D02*
X0279709Y0191764D01*
X0270815Y0190166D02*
X0269508Y0190166D01*
X0279733Y0202954D02*
X0300589Y0202954D01*
X0298991Y0204552D02*
X0296173Y0204552D01*
X0295161Y0204552D02*
X0295161Y0204552D01*
X0294150Y0204552D02*
X0286173Y0204552D01*
X0286192Y0204555D02*
X0286850Y0204769D01*
X0287468Y0205084D01*
X0288028Y0205491D01*
X0288518Y0205980D01*
X0288925Y0206541D01*
X0289239Y0207158D01*
X0289453Y0207817D01*
X0289561Y0208501D01*
X0289561Y0211447D01*
X0289561Y0214393D01*
X0289453Y0215077D01*
X0289239Y0215736D01*
X0288925Y0216353D01*
X0288518Y0216913D01*
X0288028Y0217403D01*
X0287468Y0217810D01*
X0286850Y0218124D01*
X0286192Y0218338D01*
X0285508Y0218447D01*
X0285161Y0218447D01*
X0285161Y0211447D01*
X0285162Y0211447D02*
X0289561Y0211447D01*
X0285162Y0211447D01*
X0285162Y0211447D01*
X0285161Y0211447D02*
X0285161Y0204447D01*
X0285508Y0204447D01*
X0286192Y0204555D01*
X0285161Y0204552D02*
X0285161Y0204552D01*
X0284150Y0204552D02*
X0281332Y0204552D01*
X0285161Y0206151D02*
X0285161Y0206151D01*
X0285161Y0207749D02*
X0285161Y0207749D01*
X0285161Y0209348D02*
X0285161Y0209348D01*
X0285161Y0210946D02*
X0285161Y0210946D01*
X0285161Y0212545D02*
X0285161Y0212545D01*
X0285161Y0214143D02*
X0285161Y0214143D01*
X0285161Y0215742D02*
X0285161Y0215742D01*
X0285161Y0217340D02*
X0285161Y0217340D01*
X0282232Y0217340D02*
X0281807Y0217340D01*
X0280735Y0218939D02*
X0299588Y0218939D01*
X0298516Y0217340D02*
X0298091Y0217340D01*
X0295161Y0217340D02*
X0295161Y0217340D01*
X0295161Y0215742D02*
X0295161Y0215742D01*
X0295161Y0214143D02*
X0295161Y0214143D01*
X0295161Y0212545D02*
X0295161Y0212545D01*
X0295161Y0210946D02*
X0295161Y0210946D01*
X0295161Y0209348D02*
X0295161Y0209348D01*
X0295161Y0207749D02*
X0295161Y0207749D01*
X0295161Y0206151D02*
X0295161Y0206151D01*
X0291682Y0206151D02*
X0288641Y0206151D01*
X0289431Y0207749D02*
X0290892Y0207749D01*
X0290761Y0209348D02*
X0289561Y0209348D01*
X0289561Y0210946D02*
X0290761Y0210946D01*
X0290761Y0212545D02*
X0289561Y0212545D01*
X0289561Y0214143D02*
X0290761Y0214143D01*
X0291087Y0215742D02*
X0289236Y0215742D01*
X0288091Y0217340D02*
X0292232Y0217340D01*
X0310735Y0218939D02*
X0366239Y0218939D01*
X0366239Y0217340D02*
X0328091Y0217340D01*
X0328028Y0217403D02*
X0327468Y0217810D01*
X0326850Y0218124D01*
X0326192Y0218338D01*
X0325508Y0218447D01*
X0325161Y0218447D01*
X0324815Y0218447D01*
X0324131Y0218338D01*
X0323472Y0218124D01*
X0322855Y0217810D01*
X0322295Y0217403D01*
X0321805Y0216913D01*
X0321398Y0216353D01*
X0321084Y0215736D01*
X0320870Y0215077D01*
X0320761Y0214393D01*
X0320761Y0211447D01*
X0325161Y0211447D01*
X0325161Y0211447D01*
X0325161Y0218447D01*
X0325161Y0211447D01*
X0325161Y0211447D01*
X0320761Y0211447D01*
X0320761Y0208501D01*
X0320870Y0207817D01*
X0321084Y0207158D01*
X0321398Y0206541D01*
X0321805Y0205980D01*
X0322295Y0205491D01*
X0322855Y0205084D01*
X0323472Y0204769D01*
X0324131Y0204555D01*
X0324815Y0204447D01*
X0325161Y0204447D01*
X0325161Y0211447D01*
X0325161Y0211447D01*
X0325162Y0211447D02*
X0329561Y0211447D01*
X0329561Y0214393D01*
X0329453Y0215077D01*
X0329239Y0215736D01*
X0328925Y0216353D01*
X0328518Y0216913D01*
X0328028Y0217403D01*
X0329236Y0215742D02*
X0366239Y0215742D01*
X0366239Y0214143D02*
X0329561Y0214143D01*
X0329561Y0212545D02*
X0343267Y0212545D01*
X0340651Y0210946D02*
X0329561Y0210946D01*
X0329561Y0211447D02*
X0325162Y0211447D01*
X0325162Y0211447D01*
X0325161Y0211447D02*
X0325161Y0204447D01*
X0325508Y0204447D01*
X0326192Y0204555D01*
X0326850Y0204769D01*
X0327468Y0205084D01*
X0328028Y0205491D01*
X0328518Y0205980D01*
X0328925Y0206541D01*
X0329239Y0207158D01*
X0329453Y0207817D01*
X0329561Y0208501D01*
X0329561Y0211447D01*
X0329561Y0209348D02*
X0339053Y0209348D01*
X0337990Y0207749D02*
X0329431Y0207749D01*
X0328641Y0206151D02*
X0337142Y0206151D01*
X0336714Y0204552D02*
X0326173Y0204552D01*
X0325161Y0204552D02*
X0325161Y0204552D01*
X0324150Y0204552D02*
X0316173Y0204552D01*
X0316192Y0204555D02*
X0316850Y0204769D01*
X0317468Y0205084D01*
X0318028Y0205491D01*
X0318518Y0205980D01*
X0318925Y0206541D01*
X0319239Y0207158D01*
X0319453Y0207817D01*
X0319561Y0208501D01*
X0319561Y0211447D01*
X0319561Y0214393D01*
X0319453Y0215077D01*
X0319239Y0215736D01*
X0318925Y0216353D01*
X0318518Y0216913D01*
X0318028Y0217403D01*
X0317468Y0217810D01*
X0316850Y0218124D01*
X0316192Y0218338D01*
X0315508Y0218447D01*
X0315161Y0218447D01*
X0315161Y0211447D01*
X0315162Y0211447D02*
X0319561Y0211447D01*
X0315162Y0211447D01*
X0315162Y0211447D01*
X0315161Y0211447D02*
X0315161Y0204447D01*
X0315508Y0204447D01*
X0316192Y0204555D01*
X0315161Y0204552D02*
X0315161Y0204552D01*
X0314150Y0204552D02*
X0311332Y0204552D01*
X0309733Y0202954D02*
X0336424Y0202954D01*
X0325161Y0206151D02*
X0325161Y0206151D01*
X0325161Y0207749D02*
X0325161Y0207749D01*
X0325161Y0209348D02*
X0325161Y0209348D01*
X0325161Y0210946D02*
X0325161Y0210946D01*
X0325161Y0212545D02*
X0325161Y0212545D01*
X0325161Y0214143D02*
X0325161Y0214143D01*
X0325161Y0215742D02*
X0325161Y0215742D01*
X0325161Y0217340D02*
X0325161Y0217340D01*
X0322232Y0217340D02*
X0318091Y0217340D01*
X0319236Y0215742D02*
X0321087Y0215742D01*
X0320761Y0214143D02*
X0319561Y0214143D01*
X0319561Y0212545D02*
X0320761Y0212545D01*
X0320761Y0210946D02*
X0319561Y0210946D01*
X0319561Y0209348D02*
X0320761Y0209348D01*
X0320892Y0207749D02*
X0319431Y0207749D01*
X0318641Y0206151D02*
X0321682Y0206151D01*
X0315161Y0206151D02*
X0315161Y0206151D01*
X0315161Y0207749D02*
X0315161Y0207749D01*
X0315161Y0209348D02*
X0315161Y0209348D01*
X0315161Y0210946D02*
X0315161Y0210946D01*
X0315161Y0212545D02*
X0315161Y0212545D01*
X0315161Y0214143D02*
X0315161Y0214143D01*
X0315161Y0215742D02*
X0315161Y0215742D01*
X0315161Y0217340D02*
X0315161Y0217340D01*
X0312232Y0217340D02*
X0311807Y0217340D01*
X0352568Y0212545D02*
X0366239Y0212545D01*
X0366239Y0210946D02*
X0355183Y0210946D01*
X0356782Y0209348D02*
X0366239Y0209348D01*
X0366239Y0207749D02*
X0357845Y0207749D01*
X0358692Y0206151D02*
X0366239Y0206151D01*
X0366239Y0204552D02*
X0359121Y0204552D01*
X0359410Y0202954D02*
X0366239Y0202954D01*
X0366239Y0201355D02*
X0359410Y0201355D01*
X0359226Y0199757D02*
X0366239Y0199757D01*
X0366239Y0198158D02*
X0358797Y0198158D01*
X0358071Y0196560D02*
X0366239Y0196560D01*
X0366239Y0194961D02*
X0357148Y0194961D01*
X0355575Y0193363D02*
X0366239Y0193363D01*
X0269588Y0218939D02*
X0219359Y0218939D01*
X0219359Y0217340D02*
X0262232Y0217340D01*
X0261087Y0215742D02*
X0219359Y0215742D01*
X0265161Y0215742D02*
X0265161Y0215742D01*
X0265161Y0217340D02*
X0265161Y0217340D01*
X0268091Y0217340D02*
X0268516Y0217340D01*
X0265161Y0214143D02*
X0265161Y0214143D01*
X0265161Y0212545D02*
X0265161Y0212545D01*
X0265161Y0210946D02*
X0265161Y0210946D01*
X0265161Y0209348D02*
X0265161Y0209348D01*
X0265161Y0207749D02*
X0265161Y0207749D01*
X0265161Y0206151D02*
X0265161Y0206151D01*
D15*
X0320600Y0073960D03*
X0326000Y0054160D03*
X0316100Y0049660D03*
X0316100Y0042460D03*
M02*
